<?xml version="1.0" encoding="iso-8859-1"?>
<!-- Generator: Adobe Illustrator 16.0.0, SVG Export Plug-In . SVG Version: 6.00 Build 0)  -->
<!DOCTYPE svg PUBLIC "-//W3C//DTD SVG 1.1//EN" "http://www.w3.org/Graphics/SVG/1.1/DTD/svg11.dtd">
<svg version="1.1" id="Capa_1" xmlns="http://www.w3.org/2000/svg" xmlns:xlink="http://www.w3.org/1999/xlink" x="0px" y="0px"
	 width="204.344px" height="204.344px" viewBox="0 0 204.344 204.344" style="enable-background:new 0 0 204.344 204.344;"
	 xml:space="preserve">
<g>
	<g>
		<path d="M134.373,137.769H81.925l16.876-14.03c0.063-0.052,0.125-0.109,0.186-0.164c3.34-2.687,5.247-6.633,5.247-10.89
			c0-7.721-6.291-14.007-14.019-14.016c-2.508,0-5,0.708-7.216,2.043c-0.094,0.053-0.188,0.109-0.28,0.173
			c-1.184,0.753-2.264,1.704-3.21,2.827l-40.611,36.483c-3.858,2.621-6.153,6.93-6.153,11.584c0,3.74,1.538,7.357,4.243,10
			c0.12,0.146,0.253,0.287,0.396,0.417l41.298,37.11c0.905,1.074,1.92,1.984,3.029,2.71c0.251,0.205,0.525,0.369,0.819,0.493
			c2.117,1.201,4.478,1.834,6.861,1.834c7.731,0,14.018-6.29,14.018-14.018c0-4.243-1.899-8.179-5.232-10.872
			c-0.067-0.065-0.134-0.123-0.204-0.182l-16.214-13.476h52.614c7.73,0,14.017-6.29,14.017-14.018
			C148.39,144.045,142.1,137.769,134.373,137.769z M134.373,158.795H72.059c-1.475,0-2.792,0.924-3.294,2.313
			c-0.501,1.386-0.08,2.942,1.056,3.884l23.391,19.441c0.12,0.123,0.25,0.239,0.385,0.342c1.781,1.355,2.801,3.381,2.801,5.558
			c0,3.864-3.143,7.009-7.008,7.009c-1.267,0-2.481-0.355-3.621-1.051c-0.056-0.034-0.114-0.068-0.174-0.099
			c-0.588-0.38-1.146-0.89-1.648-1.517c-0.118-0.146-0.245-0.277-0.385-0.407l-41.133-36.963c-0.103-0.119-0.214-0.235-0.333-0.346
			c-1.507-1.368-2.337-3.203-2.337-5.181c0-2.368,1.198-4.565,3.207-5.869c0.151-0.1,0.298-0.209,0.435-0.332l40.993-36.836
			c0.14-0.127,0.27-0.264,0.387-0.407c0.518-0.646,1.1-1.167,1.736-1.563l0,0c0.026-0.015,0.05-0.028,0.074-0.042
			c1.146-0.698,2.367-1.054,3.624-1.054c3.865,0,7.012,3.148,7.012,7.009c0,2.177-1.02,4.202-2.796,5.558
			c-0.137,0.103-0.26,0.212-0.372,0.328l-24.071,20.006c-1.136,0.945-1.555,2.498-1.054,3.888c0.5,1.386,1.817,2.313,3.294,2.313
			h62.145c3.867,0,7.009,3.142,7.009,7.009C141.378,155.65,138.236,158.795,134.373,158.795z"/>
		<path d="M167.373,42.58c-0.124-0.154-0.261-0.297-0.407-0.435L125.663,5.042c-0.899-1.08-1.93-1.997-3.059-2.741
			c-0.24-0.188-0.504-0.342-0.777-0.462C119.702,0.633,117.341,0,114.959,0c-7.73,0-14.018,6.287-14.018,14.017
			c0,4.25,1.899,8.186,5.232,10.871c0.065,0.063,0.134,0.122,0.202,0.181l16.221,13.482H69.968c-7.724,0-14.007,6.287-14.007,14.014
			c0,7.73,6.286,14.017,14.017,14.017h52.448l-16.878,14.027c-0.064,0.053-0.13,0.109-0.185,0.165
			c-3.342,2.688-5.251,6.634-5.251,10.887c0.003,7.731,6.291,14.016,14.019,14.016c2.478,0,4.938-0.685,7.114-1.981
			c0.13-0.065,0.257-0.141,0.38-0.223c1.191-0.76,2.27-1.711,3.21-2.84l40.611-36.484c3.863-2.62,6.156-6.93,6.152-11.581
			C171.605,48.836,170.069,45.226,167.373,42.58z M161.388,58.434c-0.154,0.099-0.298,0.21-0.435,0.333L119.955,95.6
			c-0.144,0.127-0.273,0.267-0.39,0.417c-0.486,0.603-1.034,1.104-1.629,1.501c-0.062,0.031-0.123,0.068-0.188,0.107
			c-1.133,0.695-2.348,1.047-3.617,1.047c-3.86,0-7.009-3.143-7.009-7.008c0-2.175,1.02-4.201,2.799-5.555
			c0.138-0.101,0.261-0.214,0.37-0.328l24.075-20.006c1.133-0.943,1.557-2.499,1.054-3.886c-0.503-1.389-1.817-2.313-3.296-2.313
			H69.981c-3.865,0-7.009-3.144-7.009-7.009c0-3.862,3.14-7.005,7.009-7.005h62.308c1.478,0,2.796-0.925,3.299-2.313
			c0.499-1.388,0.078-2.94-1.058-3.886l-23.387-19.441c-0.124-0.127-0.254-0.243-0.397-0.351c-1.772-1.345-2.792-3.367-2.792-5.547
			c0-3.865,3.145-7.008,7.008-7.008c1.256,0,2.481,0.354,3.624,1.05c0.052,0.033,0.103,0.063,0.154,0.089
			c0.605,0.392,1.164,0.9,1.653,1.513c0.119,0.147,0.25,0.288,0.39,0.414l41.128,36.949c0.109,0.126,0.223,0.25,0.349,0.361
			c1.506,1.367,2.338,3.203,2.334,5.179C164.594,54.936,163.396,57.129,161.388,58.434z"/>
	</g>
</g>
<g>
</g>
<g>
</g>
<g>
</g>
<g>
</g>
<g>
</g>
<g>
</g>
<g>
</g>
<g>
</g>
<g>
</g>
<g>
</g>
<g>
</g>
<g>
</g>
<g>
</g>
<g>
</g>
<g>
</g>
</svg>
